<svg width="36" height="36" viewBox="0 0 36 36" fill="none" xmlns="http://www.w3.org/2000/svg">
<rect width="36" height="36" rx="4" fill="#2C2C2C"/>
<path fill-rule="evenodd" clip-rule="evenodd" d="M18 10.6218C20.403 10.6218 20.6877 10.631 21.6368 10.6742C22.5141 10.7143 22.9906 10.861 23.3077 10.9841C23.7279 11.1474 24.0277 11.3425 24.3426 11.6574C24.6576 11.9724 24.8526 12.2721 25.016 12.6922C25.1392 13.0094 25.2859 13.4859 25.3259 14.3634C25.369 15.3124 25.3783 15.5971 25.3783 18.0001C25.3783 20.4032 25.369 20.6879 25.3259 21.637C25.2859 22.5144 25.1392 22.9909 25.016 23.3079C24.8528 23.7281 24.6576 24.0278 24.3426 24.3428C24.0277 24.6578 23.728 24.8529 23.3077 25.0162C22.9906 25.1394 22.5138 25.2862 21.6368 25.3261C20.6877 25.3694 20.4033 25.3785 18 25.3785C15.5967 25.3785 15.3121 25.3694 14.3632 25.3261C13.4857 25.2862 13.0092 25.1394 12.6921 25.0162C12.2719 24.8531 11.9722 24.6578 11.6572 24.3428C11.3422 24.0278 11.1472 23.7281 10.9839 23.3079C10.8608 22.9909 10.714 22.5143 10.674 21.637C10.6307 20.6879 10.6215 20.4033 10.6215 18.0001C10.6215 15.5971 10.6307 15.3125 10.674 14.3634C10.714 13.4859 10.8608 13.0094 10.9839 12.6922C11.1472 12.2721 11.3422 11.9724 11.6572 11.6574C11.9721 11.3425 12.2719 11.1474 12.6921 10.9841C13.0092 10.8609 13.4857 10.7143 14.3632 10.6742C15.3123 10.631 15.5969 10.6218 18 10.6218ZM18 9.00024C15.5557 9.00024 15.2492 9.01057 14.2893 9.05439C13.3313 9.0982 12.6771 9.2503 12.1046 9.47275C11.5128 9.70273 11.0109 10.0105 10.5106 10.5108C10.0103 11.0111 9.70249 11.5131 9.47251 12.1048C9.24996 12.6774 9.09786 13.3316 9.05414 14.2895C9.01033 15.2494 9 15.5559 9 18.0001C9 20.4444 9.01023 20.7508 9.05414 21.7107C9.09786 22.6688 9.24996 23.3228 9.47251 23.8954C9.70249 24.4872 10.0103 24.9892 10.5106 25.4896C11.011 25.9901 11.5128 26.2977 12.1046 26.5276C12.6771 26.7503 13.3312 26.9024 14.2893 26.9461C15.2492 26.9898 15.5557 27.0002 18 27.0002C20.4441 27.0002 20.7506 26.9899 21.7106 26.9461C22.6686 26.9024 23.3228 26.7503 23.8951 26.5276C24.487 26.2977 24.9889 25.9901 25.4894 25.4896C25.9898 24.9892 26.2973 24.4872 26.5275 23.8954C26.75 23.3228 26.9021 22.6688 26.9458 21.7107C26.9895 20.7509 27 20.4444 27 18.0001C27 15.5559 26.9898 15.2495 26.9458 14.2895C26.9021 13.3316 26.75 12.6773 26.5275 12.1048C26.2973 11.5131 25.9898 11.0111 25.4894 10.5108C24.9889 10.0105 24.487 9.70273 23.8951 9.47275C23.3228 9.2503 22.6686 9.0982 21.7106 9.05439C20.7507 9.01057 20.4441 9.00024 18 9.00024ZM18.0007 13.3786C15.4483 13.3786 13.3791 15.4477 13.3791 18.0001C13.3791 20.5526 15.4483 22.6216 18.0007 22.6216C20.5531 22.6216 22.6222 20.5527 22.6222 18.0001C22.6223 15.4477 20.5531 13.3786 18.0007 13.3786ZM18.0007 20.9999C16.3439 20.9999 15.0007 19.6569 15.0007 18C15.0007 16.3433 16.3439 15.0002 18.0007 15.0002C19.6575 15.0002 21.0005 16.3433 21.0005 18C21.0006 19.6569 19.6576 20.9999 18.0007 20.9999ZM23.8841 13.1959C23.8841 13.7923 23.4006 14.2758 22.8041 14.2758C22.2076 14.2758 21.7243 13.7922 21.7243 13.1959C21.7243 12.5994 22.2079 12.116 22.8041 12.116C23.4006 12.1159 23.8841 12.5994 23.8841 13.1959Z" fill="white"/>
</svg>
