<svg width="36" height="36" viewBox="0 0 36 36" fill="none" xmlns="http://www.w3.org/2000/svg">
<rect width="36" height="36" rx="4" fill="#2C2C2C"/>
<path fill-rule="evenodd" clip-rule="evenodd" d="M9.29878 14.9762H13.0293V27.0006H9.29878V14.9762ZM15.3677 14.976H18.9452V16.6186H18.9993C19.4941 15.6741 20.7135 14.6796 22.5272 14.6796C26.3027 14.6796 27.0002 17.1683 27.0002 20.4079V27.0004H23.2743V21.1548C23.2743 19.7599 23.2473 17.9645 21.3348 17.9645C19.3953 17.9645 19.0983 19.4854 19.0983 21.051V27.0003H15.3677V14.976ZM11.1645 9.00024C12.3569 9.00024 13.3245 9.97242 13.3245 11.1651C13.3245 12.3621 12.3569 13.3336 11.1645 13.3336C9.96747 13.3336 9 12.3621 9 11.1651C9 9.97231 9.96736 9.00024 11.1645 9.00024Z" fill="white"/>
</svg>
