<svg width="36" height="36" viewBox="0 0 36 36" fill="none" xmlns="http://www.w3.org/2000/svg">
<rect width="36" height="36" rx="4" fill="#2C2C2C"/>
<path d="M27 17.4595C27 16.3652 26.106 15.4757 25.0073 15.4757C24.471 15.4757 23.985 15.6902 23.6273 16.0352C22.2698 15.142 20.433 14.5735 18.399 14.5007L19.5113 10.999L22.5233 11.7047L22.5187 11.7482C22.5187 12.643 23.25 13.3705 24.1492 13.3705C25.0477 13.3705 25.7783 12.643 25.7783 11.7482C25.7783 10.8535 25.047 10.1252 24.1492 10.1252C23.4592 10.1252 22.8712 10.5557 22.6335 11.1595L19.3867 10.3982C19.245 10.3637 19.101 10.4455 19.0568 10.585L17.8163 14.4902C15.6878 14.5157 13.7595 15.0887 12.3412 16.009C11.9857 15.6805 11.514 15.475 10.992 15.475C9.89325 15.475 9 16.3652 9 17.4595C9 18.187 9.39975 18.8177 9.98775 19.1627C9.94875 19.3742 9.92325 19.588 9.92325 19.8055C9.92325 22.7387 13.5293 25.1252 17.9625 25.1252C22.3957 25.1252 26.0025 22.7387 26.0025 19.8055C26.0025 19.6 25.9807 19.3975 25.9462 19.198C26.5702 18.8627 27 18.214 27 17.4595ZM14.082 18.8215C14.082 18.1705 14.6145 17.6402 15.2685 17.6402C15.9225 17.6402 16.4543 18.1705 16.4543 18.8215C16.4543 19.4725 15.9225 20.002 15.2685 20.002C14.6145 20.002 14.082 19.4725 14.082 18.8215ZM20.8777 22.3232C20.28 22.918 19.3417 23.2075 18.0097 23.2075L18 23.2052L17.9903 23.2075C16.6575 23.2075 15.7193 22.918 15.1223 22.3232C15.0135 22.2152 15.0135 22.039 15.1223 21.931C15.231 21.8222 15.408 21.8222 15.5168 21.931C16.0043 22.4162 16.8135 22.6517 17.9903 22.6517L18 22.654L18.0097 22.6517C19.1865 22.6517 19.9957 22.4155 20.4832 21.9302C20.592 21.8215 20.769 21.8222 20.8777 21.9302C20.9865 22.039 20.9865 22.2145 20.8777 22.3232ZM20.736 20.002C20.082 20.002 19.5503 19.4725 19.5503 18.8215C19.5503 18.1705 20.082 17.6402 20.736 17.6402C21.39 17.6402 21.9218 18.1705 21.9218 18.8215C21.9218 19.4725 21.39 20.002 20.736 20.002Z" fill="white"/>
</svg>
