<svg width="36" height="36" viewBox="0 0 36 36" fill="none" xmlns="http://www.w3.org/2000/svg">
<rect width="36" height="36" rx="4" fill="#2C2C2C"/>
<path d="M9.31793 17.7972L13.4655 19.3776L15.0709 24.6485C15.1736 24.986 15.5779 25.1108 15.8463 24.8868L18.1582 22.9626C18.4006 22.761 18.7457 22.751 18.999 22.9387L23.1689 26.0295C23.456 26.2425 23.8627 26.0819 23.9347 25.7277L26.9894 10.7267C27.068 10.3399 26.6956 10.0171 26.3348 10.1596L9.31307 16.8635C8.89301 17.0289 8.89667 17.636 9.31793 17.7972ZM14.8121 18.5363L22.918 13.4394C23.0637 13.3481 23.2136 13.5492 23.0885 13.6676L16.3988 20.0162C16.1636 20.2396 16.012 20.5387 15.969 20.8633L15.7411 22.5874C15.7109 22.8176 15.3942 22.8404 15.332 22.6176L14.4556 19.4737C14.3552 19.1151 14.5015 18.7321 14.8121 18.5363Z" fill="white"/>
</svg>
