<svg xmlns="http://www.w3.org/2000/svg" viewBox="39.999996185302734 256 53.999996185302734 44"><g transform="translate(.000002-1)" opacity="0.2"><path d="M51.7605,256h31.1035c.7422,0,1.4278.392,1.7979,1.027l9.0617,15.557c.4699.807.3303,1.825-.34,2.48L68.441,299.409c-.8079.788-2.1078.788-2.9157,0L40.6164,275.096c-.6859-.669-.8143-1.717-.31-2.529l9.6863-15.59c.3772-.607,1.0466-.977,1.7678-.977Z" clip-rule="evenodd" fill="#009393" fill-rule="evenodd"></path><path d="M62.2683,261.96h-5.1443l6.2846,13.15h-4.614v2.946h5.8337v2.24h-5.8337v2.947h5.8337v5.54h4.8792v-5.54h5.5686v-2.947h-5.5686v-2.24h5.5686v-2.946h-4.2428l6.2978-13.15h-5.1443l-4.8526,11.224-4.8659-11.224Z" fill="#fff"></path></g></svg>