<svg xmlns="http://www.w3.org/2000/svg" viewBox="238 233 86 86"><g transform="translate(0 5)"><circle r="43" transform="translate(281 276)" filter="url(#eatlnbk5Q8j78-filter)" fill="#fff"></circle><g id="eatlnbk5Q8j79_ts" transform="translate(281,276) scale(1,1)"><circle id="eatlnbk5Q8j79" r="43" transform="translate(0,0)" filter="url(#eatlnbk5Q8j79-filter)" fill="#fff"></circle></g><g id="eatlnbk5Q8j80_ts" transform="translate(281.004173,278.004883) scale(1,1)"><path d="M265.762,256h31.108c.743,0,1.428.392,1.799,1.027l9.063,15.561c.47.807.33,1.825-.34,2.48l-24.947,24.35c-.808.789-2.108.789-2.916,0l-24.913-24.317c-.685-.67-.814-1.718-.31-2.53l9.688-15.594c.377-.607,1.047-.977,1.768-.977Zm27.092,6.947v4.366h-8.862v3.027c6.224.324,10.893,1.652,10.928,3.245v3.32c-.035,1.592-4.704,2.921-10.928,3.244v7.429h-5.884v-7.429c-6.223-.323-10.893-1.652-10.928-3.244l.001-3.32c.034-1.593,4.704-2.921,10.927-3.245v-3.027h-8.861v-4.366h23.607ZM281.05,277.869c6.642,0,12.193-1.124,13.552-2.624-1.152-1.272-5.319-2.274-10.61-2.549v3.17c-.948.049-1.932.075-2.942.075-1.009,0-1.994-.026-2.942-.075v-3.17c-5.29.275-9.457,1.277-10.61,2.549c1.359,1.5,6.91,2.624,13.552,2.624Z" transform="translate(-281.004173,-278.004883)" opacity="0.2" clip-rule="evenodd" fill="#009393" fill-rule="evenodd"></path></g></g></svg>