<svg xmlns="http://www.w3.org/2000/svg" viewBox="254.00001525878906 469 54.00035095214844 44"><g opacity="0.2"><path d="M282.427,489.847l-.044,5.097c1.669-.327,2.685-1.31,2.696-2.63-.011-1.244-.939-1.932-2.652-2.467Z" fill="#009393"></path><path d="M277.511,482.502c-.022,1.255.972,1.965,2.353,2.434l.044-4.824c-1.558.316-2.397,1.222-2.397,2.39Z" fill="#009393"></path><path d="M265.761,469h31.103c.742,0,1.428.392,1.798,1.027l9.062,15.557c.47.807.33,1.825-.34,2.48l-24.943,24.345c-.808.788-2.108.788-2.916,0l-24.909-24.313c-.685-.669-.814-1.717-.31-2.529l9.687-15.59c.377-.607,1.046-.977,1.768-.977Zm16.556,32.503h-2.608l.023-2.532c-4.685-.403-7.613-2.87-7.724-7.279h4.63c.121,1.822,1.337,2.914,3.138,3.252l.055-5.773-1.061-.262c-3.823-.906-6.176-2.794-6.165-6.09-.022-3.722,3.027-6.298,7.348-6.713l.022-2.542h2.607l-.022,2.564c4.254.459,6.983,3.045,7.038,6.658h-4.585c-.133-1.375-1.028-2.303-2.497-2.641l-.044,5.457.652.152c3.933.874,6.772,2.849,6.783,6.571-.011,3.787-2.784,6.297-7.568,6.657l-.022,2.521Z" clip-rule="evenodd" fill="#009393" fill-rule="evenodd"></path></g></svg>