<svg xmlns="http://www.w3.org/2000/svg" viewBox="40.0000114440918 41 53.99997329711914 44"><g opacity="0.2"><path d="M93.7264,57.5805L84.6642,42.0256C84.2978,41.3907,83.6139,41,82.8689,41h-31.1069c-.7206,0-1.3923.3663-1.771.9768L40.306,57.5683c-.5007.8058-.3786,1.8558.3053,2.5274L65.5262,84.4048c.8061.7936,2.1007.7936,2.9189,0L93.3844,60.059c.6717-.6471.8061-1.6727.342-2.4785ZM59.8715,61.9027c0,.0854-.0366.1587-.0977.2197-.0611.0611-.1466.0977-.2321.0977h-1.1114c-.0977,0-.1709-.0366-.232-.0977-.0611-.061-.0855-.1343-.0855-.2197v-5.7019l-1.8442,3.5164c-.0488.0732-.0977.1465-.171.2075s-.1587.0855-.2809.0855h-.5374c-.1221,0-.2198-.0244-.2809-.0855-.061-.061-.1221-.1221-.1587-.2075l-1.8442-3.5164v5.7019c0,.0854-.0367.1587-.0977.2197-.0611.0611-.1344.0977-.2199.0977h-1.1114c-.0977,0-.1709-.0366-.232-.0977-.0611-.061-.0977-.1343-.0977-.2197v-8.5833c0-.0977.0366-.1709.0977-.232s.1466-.0977.232-.0977h1.0382c.1221,0,.2198.0367.2809.0977s.0977.1221.1221.1465l2.5403,4.7495l2.5648-4.7495c.0122-.0366.0611-.0854.1221-.1465s.1588-.0977.2809-.0977h1.0259c.0977,0,.171.0367.2321.0977s.0977.1465.0977.232v8.5833v0Zm7.5722-2.9181c0,.0855-.0367.1587-.0977.2198-.0611.061-.1466.0976-.2321.0976h-4.3723c0,.0489,0,.0855,0,.1099.0122.3053.0733.5861.1832.8547.1099.2564.2687.464.4885.6227.2199.1587.4763.232.7694.232.2443,0,.4519-.0367.6229-.1099.171-.0733.3053-.1587.4031-.2564.1099-.0977.1831-.171.2198-.232.0733-.1099.1465-.1709.1954-.1954.0488-.0244.1221-.0366.2198-.0366h1.1359c.0855,0,.1587.0244.2198.0733.0611.0488.0855.1221.0733.1953-.0122.1465-.0855.3175-.2199.5128-.1343.2076-.3297.4029-.5862.5983s-.574.3541-.9526.4762-.8183.1953-1.3068.1953c-.9771,0-1.7465-.2808-2.3205-.8424-.5741-.5617-.8794-1.3675-.9282-2.3931-.0122-.0855-.0122-.1954-.0122-.3419c0-.1343,0-.2442.0122-.3174.0366-.6593.1832-1.2332.4519-1.7093.2686-.4884.635-.8547,1.1114-1.1111s1.0381-.3907,1.6732-.3907c.7083,0,1.3068.1465,1.7953.4395s.8427.7082,1.0992,1.221c.2442.525.3664,1.1232.3664,1.807v.2808h-.0122Zm6.9493,3.1501c-.0611.061-.1222.0854-.2077.0854h-1.1969c-.0977,0-.171-.0244-.2198-.0732-.0489-.0489-.0977-.0977-.1343-.1343l-1.5878-2.1001-1.6121,2.1001c-.0366.0488-.0733.0854-.1221.1343-.0489.0488-.1222.0732-.2321.0732h-1.1602c-.0733,0-.1466-.0244-.2077-.0854-.061-.0611-.0854-.1221-.0854-.2076c0-.0244.0122-.0611.0244-.0977s.0366-.0732.0733-.1343l2.2472-3.0035-2.0885-2.8204c-.0244-.0489-.0488-.0855-.061-.1221s-.0245-.0733-.0245-.1099c0-.0733.0245-.1465.0855-.2076s.1222-.0854.2077-.0854h1.148c.1099,0,.1832.0244.232.0732.0489.0489.0977.0977.1222.1465l1.49,1.978l1.49-1.978c.0366-.0488.0733-.0976.1221-.1465.0489-.0488.1222-.0732.2321-.0732h1.0992c.0732,0,.1465.0244.2076.0854.061.0611.0855.1221.0855.1954c0,.0488-.0122.0855-.0245.1221-.0122.0366-.0366.0732-.061.1221L72.1213,58.716l2.2594,2.9791c.0367.0488.0611.0977.0733.1343s.0244.0611.0244.0977c0,.0855-.0366.1465-.0854.2076Zm7.4744-1.1966c-.2565.3785-.5984.696-1.0625.9279-.4519.232-.9893.3785-1.6122.4518v.9035c0,.0855-.0366.1587-.0977.2198-.061.061-.1343.0976-.2198.0976h-.8061c-.0855,0-.1588-.0366-.2198-.0976s-.0977-.1343-.0977-.2198v-.9279c-.6473-.0611-1.1969-.2198-1.6488-.464-.4519-.2564-.7817-.5494-1.0137-.9035-.2321-.3541-.3542-.7326-.3664-1.1111c0-.0732.0244-.1465.0855-.1953s.1221-.0733.2076-.0733h1.1725c.1099,0,.1832.0245.2565.0733.061.0488.1099.1099.1465.1831.0611.171.1588.3297.3054.4884s.3541.293.6106.4029c.2687.1099.5985.1588.9893.1588.6351,0,1.0992-.1099,1.4045-.3175s.4641-.5006.4641-.8547c0-.2564-.0855-.4639-.2443-.6104-.1587-.1588-.4152-.2931-.7694-.4274-.3542-.1221-.8183-.2564-1.3801-.4029-.6473-.1587-1.1969-.3541-1.6488-.5738s-.7816-.5128-1.0137-.8547c-.2198-.3419-.3419-.7814-.3419-1.3064c0-.6715.2442-1.2576.7328-1.7215.4885-.4762,1.1724-.7692,2.0396-.8669v-.9279c0-.0855.0366-.1588.0977-.2198.061-.0611.1343-.0977.2198-.0977h.8061c.0855,0,.1587.0366.2198.0977s.0977.1343.0977.2198v.9401c.5985.0855,1.0992.2686,1.5022.525.4031.2686.7084.5616.9282.9035.2077.3419.3176.6715.3298.9768c0,.0732-.0244.1343-.0733.1953-.0488.0611-.1221.0855-.2076.0855h-1.2213c-.0733,0-.1588-.0122-.2199-.0489-.0733-.0366-.1221-.0976-.171-.1953-.0488-.2686-.2076-.5006-.5007-.696-.2931-.1953-.6717-.293-1.1358-.293-.4763,0-.8549.0855-1.1358.2686-.2809.171-.4275.4518-.4275.8181c0,.2442.0733.4517.2076.6104.1344.1588.3664.3053.6962.4274.3175.1221.745.2564,1.2824.3907.745.1709,1.3556.3663,1.8319.586.4641.2198.8183.5006,1.0381.8425.2199.3419.342.7692.342,1.282c0,.5006-.1343.9401-.3786,1.3308Z" fill="#009393"></path><path d="M59.5413,52.9897h-1.0259c-.1222,0-.2199.0367-.2809.0977s-.0977.1221-.1222.1465l-2.5647,4.7495-2.5404-4.7495c-.0122-.0366-.061-.0854-.1221-.1465s-.1588-.0977-.2809-.0977h-1.0381c-.0977,0-.171.0367-.2321.0977s-.0977.1465-.0977.232v8.5833c0,.0855.0367.1587.0977.2198.0611.061.1466.0976.2321.0976h1.1114c.0855,0,.1588-.0366.2198-.0976.0611-.0611.0977-.1343.0977-.2198v-5.7019l1.8442,3.5164c.0489.0732.0977.1465.1588.2075s.1588.0855.2809.0855h.5374c.1099,0,.2076-.0244.2809-.0855.0732-.061.1221-.122.171-.2075l1.8441-3.5164v5.7019c0,.0855.0245.1587.0855.2198.0611.061.1344.0976.2321.0976h1.1114c.0977,0,.171-.0366.232-.0976.0611-.0611.0977-.1343.0977-.2198v-8.5833c0-.0977-.0366-.1709-.0977-.232-.061-.061-.1343-.0977-.232-.0977Z" fill="#fff"></path><path d="M65.9897,55.676c-.4884-.293-1.0868-.4395-1.7951-.4395-.6472,0-1.1967.1343-1.673.3907s-.8426.6348-1.1113,1.111c-.2686.4884-.4152,1.05-.4518,1.7093-.0122.0733-.0122.1832-.0122.3175s0,.2442.0122.3419c.0489,1.0378.3541,1.8314.9281,2.393.5739.5617,1.3433.8425,2.3202.8425.4885,0,.9281-.0611,1.3067-.1954.3785-.1221.696-.293.9525-.4761.2564-.1954.4518-.3907.5862-.5983.1343-.2076.2076-.3785.2198-.5128.0122-.0733-.0122-.1465-.0733-.1954s-.1343-.0732-.2198-.0732h-1.1357c-.0977,0-.171.0122-.2198.0366-.0489.0244-.1099.0855-.1954.1954-.0489.061-.1221.1465-.2198.2319-.1099.0977-.2442.1832-.403.2564-.171.0733-.3786.1099-.6228.1099-.2931,0-.5617-.0732-.7693-.2319-.2199-.1588-.3786-.3663-.4885-.6227s-.171-.5373-.1832-.8547c0-.0122,0-.0488,0-.1099h4.3718c.0977,0,.171-.0366.232-.0977s.0977-.1343.0977-.2197v-.2809c0-.6837-.1221-1.2942-.3663-1.807s-.6106-.9279-1.0869-1.2209ZM65.66,58.2034h-2.9186v-.0367c0-.3418.0489-.6471.1588-.8913.1099-.2564.2686-.4517.4884-.6104.2198-.1466.4885-.2198.7938-.2198s.5739.0732.7938.2198c.2198.1465.3907.354.5006.6104.11.2564.171.5495.171.8913v.0367h.0122Z" fill="#fff"></path><path d="M64.9887,56.6524c-.2199-.1465-.4885-.2198-.7938-.2198s-.574.0733-.7938.2198-.3785.3541-.4884.6105-.1588.5494-.1588.8913v.0366h2.9186v-.0366c0-.3419-.061-.6471-.171-.8913-.1343-.2564-.293-.4518-.5128-.6105Z" fill="#009393"></path><path d="M74.38,61.7072l-2.2591-2.9791l2.1126-2.8448c.0244-.0489.0488-.0855.0611-.1221.0122-.0366.0244-.0733.0244-.1221c0-.0733-.0244-.1343-.0855-.1954-.0611-.061-.1221-.0854-.2076-.0854h-1.0991c-.1099,0-.1831.0244-.232.0732-.0488.0489-.0855.0977-.1221.1465l-1.4898,1.978-1.4899-1.978c-.0244-.0488-.061-.0976-.1221-.1465-.061-.0488-.1343-.0732-.232-.0732h-1.1479c-.0733,0-.1465.0244-.2076.0854-.0611.0611-.0855.1221-.0855.2076c0,.0366.0122.0733.0244.1099s.0367.0732.0611.1221l2.0882,2.8204-2.247,3.0035c-.0366.0489-.061.0977-.0732.1343s-.0244.0611-.0244.0977c0,.0733.0244.1465.0854.2076s.1222.0854.2076.0854h1.1602c.1099,0,.1831-.0244.232-.0732.0488-.0489.0855-.0977.1221-.1343l1.6119-2.1001l1.5876,2.1001c.0366.0488.0732.0854.1343.1343.0488.0488.1221.0732.2198.0732h1.1968c.0732,0,.1465-.0244.2076-.0854.061-.0611.0854-.1221.0854-.2076c0-.0244-.0122-.061-.0244-.0977s-.0366-.0854-.0733-.1343Z" fill="#fff"></path><path d="M80.8652,57.4705c-.4763-.2197-1.0747-.4151-1.8318-.586-.5373-.1465-.9647-.2686-1.2822-.3907s-.5496-.2686-.6961-.4274-.2076-.3662-.2076-.6104c0-.3663.1465-.6471.4274-.8181s.6717-.2686,1.1357-.2686.8426.0977,1.1357.293.4518.4274.5007.696c.0488.0977.0977.1587.1709.1953.0733.0367.1466.0489.2199.0489h1.2211c.0855,0,.1588-.0244.2076-.0855.0489-.061.0733-.1221.0733-.1953-.0122-.3175-.1221-.6471-.3297-.9768-.2076-.3419-.5129-.6349-.9281-.9035-.403-.2686-.9037-.4395-1.5021-.525v-.9279c0-.0855-.0366-.1588-.0977-.2198-.061-.0611-.1343-.0977-.2198-.0977h-.7937c-.0855,0-.1588.0366-.2198.0977-.0611.061-.0977.1343-.0977.2198v.9035c-.8671.1099-1.5509.3907-2.0394.8668s-.7327,1.0501-.7327,1.7216c0,.525.1099.9645.3419,1.3064.2198.3419.5618.6227,1.0136.8547.4518.2197,1.0014.4151,1.6486.5738.5739.1465,1.038.2686,1.3799.4029.3542.1221.6106.2686.7694.4274s.2442.354.2442.6104c0,.3663-.1588.6471-.4641.8547s-.7815.3174-1.4043.3174c-.3908,0-.7205-.0488-.9892-.1587-.2686-.1099-.464-.2442-.6105-.4029-.1466-.1587-.2443-.3296-.3053-.4884-.0367-.0732-.0855-.1343-.1466-.1831-.061-.0489-.1465-.0733-.2564-.0733h-1.1846c-.0732,0-.1465.0244-.2076.0733-.061.0488-.0854.1221-.0854.1953.0122.3907.1343.757.3663,1.1111s.5618.6593,1.0136.9035c.4518.2564,1.0014.4029,1.6486.464v.9279c0,.0855.0366.1587.0977.2198.061.061.1343.0976.2198.0976h.8059c.0855,0,.1588-.0366.2199-.0976.061-.0611.0977-.1343.0977-.2198v-.9035c.6105-.0733,1.1479-.2198,1.6119-.4518.4518-.2319.806-.5372,1.0624-.9279.2565-.3785.3786-.8302.3786-1.343s-.1099-.9524-.3419-1.282c-.2198-.3175-.574-.5983-1.038-.8181Z" fill="#fff"></path></g></svg>