<svg width="36" height="36" viewBox="0 0 36 36" fill="none" xmlns="http://www.w3.org/2000/svg">
<rect width="36" height="36" rx="4" fill="#2C2C2C"/>
<path fill-rule="evenodd" clip-rule="evenodd" d="M14.6543 24.9004C21.4466 24.9004 25.1633 19.3586 25.1633 14.561C25.1633 14.4051 25.1633 14.2492 25.1561 14.0933C25.8764 13.583 26.503 12.9382 27 12.2082C26.3373 12.4988 25.6242 12.6901 24.8751 12.7823C25.6387 12.3358 26.2221 11.6201 26.503 10.7697C25.7899 11.1878 24.9976 11.4854 24.1549 11.6484C23.4778 10.9397 22.5198 10.5004 21.461 10.5004C19.4226 10.5004 17.7659 12.1303 17.7659 14.1358C17.7659 14.4193 17.8019 14.6956 17.8595 14.9649C14.7911 14.8161 12.0684 13.3634 10.2461 11.1665C9.92917 11.7051 9.7491 12.3287 9.7491 12.9949C9.7491 14.2563 10.4046 15.3689 11.3914 16.0208C10.7863 15.9996 10.2173 15.8366 9.72029 15.5673C9.72029 15.5815 9.72029 15.5956 9.72029 15.6169C9.72029 17.3744 10.9952 18.8484 12.6807 19.1815C12.3709 19.2665 12.0468 19.309 11.7083 19.309C11.4706 19.309 11.2401 19.2878 11.0168 19.2452C11.485 20.6909 12.8535 21.7397 14.467 21.7681C13.1993 22.746 11.6074 23.3271 9.87875 23.3271C9.58343 23.3271 9.28812 23.313 9 23.2775C10.6279 24.298 12.5726 24.9004 14.6543 24.9004Z" fill="white"/>
</svg>
